<?xml version="1.0" encoding="UTF-8" standalone="no"?>
<!-- Created with Inkscape (http://www.inkscape.org/) -->
<svg xmlns:inkscape="http://www.inkscape.org/namespaces/inkscape" xmlns:rdf="http://www.w3.org/1999/02/22-rdf-syntax-ns#" xmlns="http://www.w3.org/2000/svg" xmlns:sodipodi="http://sodipodi.sourceforge.net/DTD/sodipodi-0.dtd" xmlns:svg="http://www.w3.org/2000/svg" xmlns:xlink="http://www.w3.org/1999/xlink" id="svg2" viewBox="0 0 284.81 415.34">
  <sodipodi:namedview id="base" bordercolor="#666666" inkscape:pageshadow="2" guidetolerance="10" pagecolor="#ffffff" gridtolerance="10000" inkscape:window-height="968" inkscape:zoom="1" objecttolerance="10" borderopacity="1.0" inkscape:current-layer="layer1" inkscape:cx="375" inkscape:cy="320" inkscape:window-y="-4" inkscape:window-x="-4" inkscape:window-width="1280" inkscape:pageopacity="0.0" inkscape:document-units="px" />
  <g id="layer1" inkscape:label="Layer 1" inkscape:groupmode="layer" transform="translate(-93.473 -145.61)">
    <path id="path1886" class=".bird" style="fill:#3c2a9a" d="m168.91 560.3c-0.96-3.07-1.79-7.07-5.1-24.63-1.88-10.01-4.56-21.48-5.94-25.5-2.22-6.49-2.94-9.7-3.9-17.41-0.15-1.16-1.01-3.25-1.92-4.64-0.92-1.4-2.62-5.63-3.77-9.4-1.16-3.77-2.97-9.56-4.03-12.86-3.38-10.58-4.96-21.46-4.54-31.19 0.46-10.76 2.41-15.19 11.02-25.07 2.92-3.34 6.19-7.35 7.27-8.91 2.33-3.36 9.29-20.4 9.29-22.75 0-1.75-5.99-4.77-12.04-6.07-1.91-0.42-9.31-2.72-16.46-5.12-14.12-4.75-18.13-5.13-35.5-3.43-5.309 0.53-8.88 0.48-9.504-0.13-1.413-1.36 2.243-3.86 5.441-3.71 2.443 0.11 2.433 0.15-0.359 0.75-1.604 0.35-3.074 1.1-3.266 1.68-0.24 0.72 3.98 0.66 13.418-0.2 7.57-0.69 14.64-1.28 15.71-1.3 1.92-0.05 1.92-0.06 0-1.52-1.07-0.8-3.29-1.52-4.94-1.59l-3-0.12 3-0.89c1.65-0.49 4.57-2.28 6.5-3.99 6.03-5.35 10.21-6.58 24.59-7.2 17.88-0.79 21.61-2.42 27.9-12.24 6.6-10.29 11.44-22.94 13.5-35.3 4.05-24.26 5.65-48.02 4.15-61.7-0.81-7.33-0.72-9.41 0.43-11.21 0.79-1.22 1.43-3.02 1.43-4 0.01-4.69 10.18-14.36 30.5-28.98 6.4-4.61 24.5-14.31 26.69-14.31 0.51 0 4.84-1.85 9.62-4.11s13.86-5.83 20.19-7.93c6.32-2.1 14.65-5.02 18.5-6.49 8.17-3.13 19.36-6.62 32-9.98 4.95-1.32 10.01-2.69 11.25-3.06 3.16-0.93 2.98 1.86-0.25 3.98-1.38 0.9-2.5 2.28-2.5 3.06 0 0.79-1.69 2.68-3.75 4.2-2.07 1.53-5.39 4.37-7.4 6.31-2 1.94-7.18 6.53-11.5 10.21s-13.55 11.55-20.5 17.5c-16.63 14.22-31.5 25.44-41.28 31.17-9.82 5.75-11.91 8.39-11.73 14.83 0.07 2.64 0.37 19.66 0.66 37.81 0.5 31.17 0.42 33.5-1.58 42-2.28 9.67-2.81 16.01-1.56 18.66 0.57 1.2 0.21 1.84-1.29 2.32-3.2 1.01-2.46 2.36 1.68 3.08 2.06 0.35 8.25 1.89 13.75 3.42 18.02 5.01 33.74 6.21 53.5 4.1 4.67-0.51 14.57-1.19 22-1.53 12.28-0.56 17.3-0.99 36.75-3.14 4.49-0.5 6.25-0.36 6.25 0.47 0 1.94-3.77 2.79-20 4.53-8.53 0.91-21.35 2.34-28.5 3.18-43.08 5.03-40.5 4.56-40.5 7.42 0 1.1 1.18 2.21 3.06 2.86 6.67 2.33 58.57 6.24 71.97 5.42 7.04-0.43 8.76-0.24 9.86 1.09 1.13 1.35 1.07 1.7-0.34 2.24-2.21 0.85-52-0.23-71.05-1.54-8.25-0.57-18.49-1.27-22.75-1.55-8.42-0.57-15.87 0.24-34.11 3.67-10.19 1.92-11.98 2.55-12.69 4.42-0.46 1.2-1.28 2.46-1.82 2.8-0.54 0.33-3.08 4.09-5.63 8.35-2.55 4.25-6.43 10.21-8.61 13.23-2.19 3.03-6.28 8.88-9.11 13-2.83 4.13-8.7 12.2-13.05 17.94l-7.91 10.44 0.71 16.56c1.52 35.5 0.47 45.65-8.49 81.82-2.81 11.34-9.27 23.84-10.42 20.18zm-23.08-197.72l-2.84-2.72 2.25 3.31c1.25 1.82 2.53 3.04 2.85 2.72 0.33-0.32-0.69-1.81-2.26-3.31zm-3.05-0.22c-1-1.11-2.03-1.79-2.3-1.53-0.67 0.67 1.82 3.53 3.08 3.53 0.57 0 0.22-0.9-0.78-2zm7.01 0c-1-1.1-2.26-2-2.81-2s-0.19 0.9 0.81 2c0.99 1.1 2.26 2 2.81 2s0.18-0.9-0.81-2zm3.28-0.19c-0.8-1.21-2.09-2.4-2.87-2.64s-0.32 0.74 1.01 2.19c2.95 3.21 3.84 3.42 1.86 0.45zm3.79-0.33c-2.06-1.55-3.2-1.31-2.12 0.46 0.37 0.58 1.42 1.05 2.35 1.03 1.49-0.03 1.46-0.21-0.23-1.49zm-26.57 0.14c0-0.2-0.79-0.99-1.75-1.75-1.59-1.24-1.63-1.2-0.38 0.38 1.3 1.67 2.13 2.2 2.13 1.37zm-25.5-3.56c3.04-0.83 12.18-1.37 11.41-0.68-0.23 0.21-3.56 0.63-7.41 0.93-4.42 0.36-5.9 0.26-4-0.25z" />
  </g>
</svg>